<?xml version="1.0" encoding="utf-8"?>
<!-- Generator: Adobe Illustrator 19.1.0, SVG Export Plug-In . SVG Version: 6.00 Build 0)  -->
<svg version="1.2" baseProfile="tiny" id="Layer_1" xmlns="http://www.w3.org/2000/svg" xmlns:xlink="http://www.w3.org/1999/xlink"
	 x="0px" y="0px" viewBox="0 0 612 792" xml:space="preserve">
<g id="Layer_2">
	<g>
		<path d="M525.8,494.5c0,9.9-8.1,18-18,18h-399c-9.9,0-18-8.1-18-18V299c0-9.9,8.1-18,18-18h399c9.9,0,18,8.1,18,18V494.5z"/>
	</g>
</g>
<g id="Open_and_box">
	<g id="Layer_6">
		<g>
			<path fill="none" stroke="#391213" stroke-width="16" stroke-linecap="round" stroke-miterlimit="10" d="M181.5,408
				c0,0-22.2-3.7-22.2-20.6s0-4.7,0-37.7s52.3-33.5,52.3,0c0,30.5,0,27.8,0,37.8c0,16.8-21.3,20.5-21.3,20.5"/>
		</g>
		<g>
			<path fill="none" stroke="#391213" stroke-width="16" stroke-linecap="round" stroke-miterlimit="10" d="M239.8,408
				c0,0,0-75,0-78.5s1.8-4.7,8-4.7s-1.2,0,24.2,0c24,0,25,41.6,0.2,41.6c-17.8,0-23.5,0-23.5,0"/>
		</g>
		<g>
			
				<line fill="none" stroke="#391213" stroke-width="16" stroke-linecap="round" stroke-linejoin="round" stroke-miterlimit="10" x1="328.8" y1="366.4" x2="369.8" y2="366.4"/>
		</g>
		<g>
			
				<path fill="none" stroke="#391213" stroke-width="16" stroke-linecap="round" stroke-linejoin="round" stroke-miterlimit="10" d="
				M371,324.8c0,0-32,0-40,0s-10.5,6.7-10.5,9.7s0,58.5,0,65s6.8,9.8,9.8,9.8s45.8,0,45.8,0"/>
		</g>
		<g>
			
				<path fill="none" stroke="#391213" stroke-width="16" stroke-linecap="round" stroke-linejoin="round" stroke-miterlimit="10" d="
				M400,409.2c0,0,0-65.2,0-74s10.7-14.5,15.2,0s16.5,52.8,21,67.5c3.8,12.5,16.2,6.8,16.2,0s0-76.2,0-76.2"/>
		</g>
	</g>
	<g id="Layer_6_copy_2">
		<g>
			<path fill="none" stroke="#761214" stroke-width="12" stroke-linecap="round" stroke-miterlimit="10" d="M181.5,408
				c0,0-22.2-3.7-22.2-20.6s0-4.7,0-37.7s52.3-33.5,52.3,0c0,30.5,0,27.8,0,37.8c0,16.8-21.3,20.5-21.3,20.5"/>
		</g>
		<g>
			<path fill="none" stroke="#761214" stroke-width="12" stroke-linecap="round" stroke-miterlimit="10" d="M239.8,408
				c0,0,0-75,0-78.5s1.8-4.7,8-4.7s-1.2,0,24.2,0c24,0,25,41.6,0.2,41.6c-17.8,0-23.5,0-23.5,0"/>
		</g>
		<g>
			
				<line fill="none" stroke="#761214" stroke-width="12" stroke-linecap="round" stroke-linejoin="round" stroke-miterlimit="10" x1="328.8" y1="366.4" x2="369.8" y2="366.4"/>
		</g>
		<g>
			
				<path fill="none" stroke="#761214" stroke-width="12" stroke-linecap="round" stroke-linejoin="round" stroke-miterlimit="10" d="
				M371,324.8c0,0-32,0-40,0s-10.5,6.7-10.5,9.7s0,58.5,0,65s6.8,9.8,9.8,9.8s45.8,0,45.8,0"/>
		</g>
		<g>
			
				<path fill="none" stroke="#761214" stroke-width="12" stroke-linecap="round" stroke-linejoin="round" stroke-miterlimit="10" d="
				M400,409.2c0,0,0-65.2,0-74s10.7-14.5,15.2,0s16.5,52.8,21,67.5c3.8,12.5,16.2,6.8,16.2,0s0-76.2,0-76.2"/>
		</g>
	</g>
	<g id="Layer_6_copy">
		<g>
			<path fill="none" stroke="#EC2327" stroke-width="7" stroke-linecap="round" stroke-miterlimit="10" d="M181.5,408
				c0,0-22.2-3.7-22.2-20.6s0-4.7,0-37.7s52.3-33.5,52.3,0c0,30.5,0,27.8,0,37.8c0,16.8-21.3,20.5-21.3,20.5"/>
		</g>
		<g>
			<path fill="none" stroke="#EC2327" stroke-width="7" stroke-linecap="round" stroke-miterlimit="10" d="M239.8,408
				c0,0,0-75,0-78.5s1.8-4.7,8-4.7s-1.2,0,24.2,0c24,0,25,41.6,0.2,41.6c-17.8,0-23.5,0-23.5,0"/>
		</g>
		<g>
			
				<line fill="none" stroke="#EC2327" stroke-width="7" stroke-linecap="round" stroke-linejoin="round" stroke-miterlimit="10" x1="328.8" y1="366.4" x2="369.8" y2="366.4"/>
		</g>
		<g>
			<path fill="none" stroke="#EC2327" stroke-width="7" stroke-linecap="round" stroke-linejoin="round" stroke-miterlimit="10" d="
				M371,324.8c0,0-32,0-40,0s-10.5,6.7-10.5,9.7s0,58.5,0,65s6.8,9.8,9.8,9.8s45.8,0,45.8,0"/>
		</g>
		<g>
			<path fill="none" stroke="#EC2327" stroke-width="7" stroke-linecap="round" stroke-linejoin="round" stroke-miterlimit="10" d="
				M400,409.2c0,0,0-65.2,0-74s10.7-14.5,15.2,0s16.5,52.8,21,67.5c3.8,12.5,16.2,6.8,16.2,0s0-76.2,0-76.2"/>
		</g>
	</g>
	<g>
		<path fill="none" stroke="#F38C5F" stroke-width="4" stroke-linecap="round" stroke-miterlimit="10" d="M181.5,408
			c0,0-22.2-3.7-22.2-20.6s0-4.7,0-37.7s52.3-33.5,52.3,0c0,30.5,0,27.8,0,37.8c0,16.8-21.3,20.5-21.3,20.5"/>
	</g>
	<g>
		<path fill="none" stroke="#F38C5F" stroke-width="4" stroke-linecap="round" stroke-miterlimit="10" d="M239.8,408
			c0,0,0-75,0-78.5s1.8-4.7,8-4.7s-1.2,0,24.2,0c24,0,25,41.6,0.2,41.6c-17.8,0-23.5,0-23.5,0"/>
	</g>
	<g>
		
			<line fill="none" stroke="#F38C5F" stroke-width="4" stroke-linecap="round" stroke-linejoin="round" stroke-miterlimit="10" x1="328.8" y1="366.4" x2="369.8" y2="366.4"/>
	</g>
	<g>
		<path fill="none" stroke="#F38C5F" stroke-width="4" stroke-linecap="round" stroke-linejoin="round" stroke-miterlimit="10" d="
			M371,324.8c0,0-32,0-40,0s-10.5,6.7-10.5,9.7s0,58.5,0,65s6.8,9.8,9.8,9.8s45.8,0,45.8,0"/>
	</g>
	<g>
		<path fill="none" stroke="#F38C5F" stroke-width="4" stroke-linecap="round" stroke-linejoin="round" stroke-miterlimit="10" d="
			M400,409.2c0,0,0-65.2,0-74s10.7-14.5,15.2,0s16.5,52.8,21,67.5c3.8,12.5,16.2,6.8,16.2,0s0-76.2,0-76.2"/>
	</g>
	<path fill="none" stroke="#28373A" stroke-width="20" stroke-linejoin="round" stroke-miterlimit="10" d="M493.2,494.4H120.7
		c-6.6,0-12-5.4-12-12V312.5c0-6.6,5.4-12,12-12h372.5c6.6,0,12,5.4,12,12v169.9C505.2,489,499.8,494.4,493.2,494.4z"/>
	<path fill="none" stroke="#4C656D" stroke-width="13" stroke-linejoin="round" stroke-miterlimit="10" d="M493.2,494.4H120.7
		c-6.6,0-12-5.4-12-12V312.5c0-6.6,5.4-12,12-12h372.5c6.6,0,12,5.4,12,12v169.9C505.2,489,499.8,494.4,493.2,494.4z"/>
	<path fill="none" stroke="#2B3493" stroke-width="9" stroke-linejoin="round" stroke-miterlimit="10" d="M493.2,494.4H120.7
		c-6.6,0-12-5.4-12-12V312.5c0-6.6,5.4-12,12-12h372.5c6.6,0,12,5.4,12,12v169.9C505.2,489,499.8,494.4,493.2,494.4z"/>
	<path fill="none" stroke="#63C6FF" stroke-width="4.75" stroke-linejoin="round" stroke-miterlimit="10" d="M493.2,494.4H120.7
		c-6.6,0-12-5.4-12-12V312.5c0-6.6,5.4-12,12-12h372.5c6.6,0,12,5.4,12,12v169.9C505.2,489,499.8,494.4,493.2,494.4z"/>
</g>
<g id="Layer_2_1_">
</g>
<g id="Layer_3">
	<g>
		<path fill="none" stroke="#761113" stroke-width="5" stroke-linecap="round" stroke-miterlimit="10" d="M247.4,447.6
			c0,0,0-19.4,0-20.3s0.6-1.2,2.8-1.2s-0.4,0,8.5,0c8.4,0,8.8,10.8,0.1,10.8c-6.2,0-6.3,0-6.3,0"/>
	</g>
	<g>
		<path fill="none" stroke="#761113" stroke-width="5" stroke-linecap="round" stroke-miterlimit="10" d="M278.4,447.6
			c0,0-6.4-1-6.4-5.3s0-1.2,0-9.7s16.7-8.7,16.7,0c0,7.9,0,7.2,0,9.8c0,4.3-6.2,5.3-6.2,5.3"/>
	</g>
	<g>
		
			<polyline fill="none" stroke="#761113" stroke-width="5" stroke-linecap="round" stroke-linejoin="round" stroke-miterlimit="10" points="
			296.4,426.1 296.4,447 310,447 		"/>
	</g>
	<g>
		
			<line fill="none" stroke="#761113" stroke-width="5" stroke-linecap="round" stroke-linejoin="round" stroke-miterlimit="10" x1="316.6" y1="426.1" x2="316.6" y2="447.6"/>
	</g>
	<g>
		<path fill="none" stroke="#761113" stroke-width="5" stroke-linecap="round" stroke-linejoin="round" stroke-miterlimit="10" d="
			M341.1,430.7c-2.9-6.5-18.2-5.9-17.5,7.4s16.1,11.2,17.5,5"/>
	</g>
	<g>
		
			<polyline fill="none" stroke="#761113" stroke-width="5" stroke-linecap="round" stroke-linejoin="round" stroke-miterlimit="10" points="
			368,426.7 349,426.7 349,447 367.1,447 		"/>
	</g>
	<g>
		
			<line fill="none" stroke="#761113" stroke-width="5" stroke-linecap="round" stroke-linejoin="round" stroke-miterlimit="10" x1="353.4" y1="436.8" x2="367" y2="436.8"/>
	</g>
	<g>
		<path fill="none" stroke="#761113" stroke-width="5" stroke-linecap="round" stroke-linejoin="round" stroke-miterlimit="10" d="
			M212.4,459.9c-2.9-6.5-18.2-5.9-17.5,7.4s16.1,11.2,17.5,5"/>
	</g>
	<g>
		<path fill="none" stroke="#761113" stroke-width="5" stroke-linecap="round" stroke-miterlimit="10" d="M227,477.2
			c0,0-6.3-0.9-6.3-5.2s0-1.2,0-9.7s16.7-8.7,16.7,0c0,7.9,0,7.2,0,9.8c0,4.3-6.1,5.2-6.1,5.2"/>
	</g>
	<g>
		<path fill="none" stroke="#761113" stroke-width="5" stroke-linecap="round" stroke-miterlimit="10" d="M277.7,477.2
			c0,0,0-19.4,0-20.3s0.6-1.2,2.8-1.2s-0.4,0,8.5,0c8.4,0,8.8,10.8,0.1,10.8c-6.2,0-6.3,0-6.3,0"/>
	</g>
	<g>
		
			<polyline fill="none" stroke="#761113" stroke-width="5" stroke-linecap="round" stroke-linejoin="round" stroke-miterlimit="10" points="
			301.7,456.5 301.7,477.3 315.3,477.3 		"/>
	</g>
	<g>
		
			<line fill="none" stroke="#761113" stroke-width="5" stroke-linecap="round" stroke-linejoin="round" stroke-miterlimit="10" x1="346.9" y1="455.7" x2="346.9" y2="477.2"/>
	</g>
	<g>
		
			<polyline fill="none" stroke="#761113" stroke-width="5" stroke-linecap="round" stroke-linejoin="round" stroke-miterlimit="10" points="
			243.4,477.1 250.3,455.7 256.9,477.1 264.4,456.3 270.5,477.1 		"/>
	</g>
	<g>
		
			<polyline fill="none" stroke="#761113" stroke-width="5" stroke-linecap="round" stroke-linejoin="round" stroke-miterlimit="10" points="
			321.8,477.3 331.5,456.5 340.8,477.1 		"/>
	</g>
	<g>
		
			<line fill="none" stroke="#761113" stroke-width="5" stroke-linecap="round" stroke-linejoin="round" stroke-miterlimit="10" x1="332.9" y1="468.5" x2="330.1" y2="468.5"/>
	</g>
	<g>
		
			<polyline fill="none" stroke="#761113" stroke-width="5" stroke-linecap="round" stroke-linejoin="round" stroke-miterlimit="10" points="
			353.5,477.2 353.5,455.7 371.8,476.5 371.8,455.4 		"/>
	</g>
	<g>
		
			<line fill="none" stroke="#761113" stroke-width="5" stroke-linecap="round" stroke-linejoin="round" stroke-miterlimit="10" x1="378.5" y1="455.4" x2="397.7" y2="455.4"/>
	</g>
	<g>
		
			<line fill="none" stroke="#761113" stroke-width="5" stroke-linecap="round" stroke-linejoin="round" stroke-miterlimit="10" x1="388.1" y1="477.2" x2="388.1" y2="455.7"/>
	</g>
	<g>
		<path fill="none" stroke="#761113" stroke-width="5" stroke-linecap="round" stroke-linejoin="round" stroke-miterlimit="10" d="
			M419.2,459.6c0-6-17.6-7.6-17.6,2c0,6.3,17.6,2.5,17.6,9.3c0,8.6-17.6,8-17.6,1.1"/>
	</g>
</g>
<g id="Layer_4">
	<g>
		<path fill="none" stroke="#ED1F24" stroke-width="3.5" stroke-linecap="round" stroke-miterlimit="10" d="M247.4,447.6
			c0,0,0-19.4,0-20.3s0.6-1.2,2.8-1.2s-0.4,0,8.5,0c8.4,0,8.8,10.8,0.1,10.8c-6.2,0-6.3,0-6.3,0"/>
	</g>
	<g>
		<path fill="none" stroke="#ED1F24" stroke-width="3.5" stroke-linecap="round" stroke-miterlimit="10" d="M278.4,447.6
			c0,0-6.4-1-6.4-5.3s0-1.2,0-9.7s16.7-8.7,16.7,0c0,7.9,0,7.2,0,9.8c0,4.3-6.2,5.3-6.2,5.3"/>
	</g>
	<g>
		
			<polyline fill="none" stroke="#ED1F24" stroke-width="3.5" stroke-linecap="round" stroke-linejoin="round" stroke-miterlimit="10" points="
			296.4,426.1 296.4,447 310,447 		"/>
	</g>
	<g>
		
			<line fill="none" stroke="#ED1F24" stroke-width="3.5" stroke-linecap="round" stroke-linejoin="round" stroke-miterlimit="10" x1="316.6" y1="426.1" x2="316.6" y2="447.6"/>
	</g>
	<g>
		
			<path fill="none" stroke="#ED1F24" stroke-width="3.5" stroke-linecap="round" stroke-linejoin="round" stroke-miterlimit="10" d="
			M341.1,430.7c-2.9-6.5-18.2-5.9-17.5,7.4s16.1,11.2,17.5,5"/>
	</g>
	<g>
		
			<polyline fill="none" stroke="#ED1F24" stroke-width="3.5" stroke-linecap="round" stroke-linejoin="round" stroke-miterlimit="10" points="
			368,426.7 349,426.7 349,447 367.1,447 		"/>
	</g>
	<g>
		
			<line fill="none" stroke="#ED1F24" stroke-width="3.5" stroke-linecap="round" stroke-linejoin="round" stroke-miterlimit="10" x1="353.4" y1="436.8" x2="367" y2="436.8"/>
	</g>
	<g>
		
			<path fill="none" stroke="#ED1F24" stroke-width="3.5" stroke-linecap="round" stroke-linejoin="round" stroke-miterlimit="10" d="
			M212.4,459.9c-2.9-6.5-18.2-5.9-17.5,7.4s16.1,11.2,17.5,5"/>
	</g>
	<g>
		<path fill="none" stroke="#ED1F24" stroke-width="3.5" stroke-linecap="round" stroke-miterlimit="10" d="M227,477.2
			c0,0-6.3-0.9-6.3-5.2s0-1.2,0-9.7s16.7-8.7,16.7,0c0,7.9,0,7.2,0,9.8c0,4.3-6.1,5.2-6.1,5.2"/>
	</g>
	<g>
		<path fill="none" stroke="#ED1F24" stroke-width="3.5" stroke-linecap="round" stroke-miterlimit="10" d="M277.7,477.2
			c0,0,0-19.4,0-20.3s0.6-1.2,2.8-1.2s-0.4,0,8.5,0c8.4,0,8.8,10.8,0.1,10.8c-6.2,0-6.3,0-6.3,0"/>
	</g>
	<g>
		
			<polyline fill="none" stroke="#ED1F24" stroke-width="3.5" stroke-linecap="round" stroke-linejoin="round" stroke-miterlimit="10" points="
			301.7,456.5 301.7,477.3 315.3,477.3 		"/>
	</g>
	<g>
		
			<line fill="none" stroke="#ED1F24" stroke-width="3.5" stroke-linecap="round" stroke-linejoin="round" stroke-miterlimit="10" x1="346.9" y1="455.7" x2="346.9" y2="477.2"/>
	</g>
	<g>
		
			<polyline fill="none" stroke="#ED1F24" stroke-width="3.5" stroke-linecap="round" stroke-linejoin="round" stroke-miterlimit="10" points="
			243.4,477.1 250.3,455.7 256.9,477.1 264.4,456.3 270.5,477.1 		"/>
	</g>
	<g>
		
			<polyline fill="none" stroke="#ED1F24" stroke-width="3.5" stroke-linecap="round" stroke-linejoin="round" stroke-miterlimit="10" points="
			321.8,477.3 331.5,456.5 340.8,477.1 		"/>
	</g>
	<g>
		
			<line fill="none" stroke="#ED1F24" stroke-width="3.5" stroke-linecap="round" stroke-linejoin="round" stroke-miterlimit="10" x1="332.9" y1="468.5" x2="330.1" y2="468.5"/>
	</g>
	<g>
		
			<polyline fill="none" stroke="#ED1F24" stroke-width="3.5" stroke-linecap="round" stroke-linejoin="round" stroke-miterlimit="10" points="
			353.5,477.2 353.5,455.7 371.8,476.5 371.8,455.4 		"/>
	</g>
	<g>
		
			<line fill="none" stroke="#ED1F24" stroke-width="3.5" stroke-linecap="round" stroke-linejoin="round" stroke-miterlimit="10" x1="378.5" y1="455.4" x2="397.7" y2="455.4"/>
	</g>
	<g>
		
			<line fill="none" stroke="#ED1F24" stroke-width="3.5" stroke-linecap="round" stroke-linejoin="round" stroke-miterlimit="10" x1="388.1" y1="477.2" x2="388.1" y2="455.7"/>
	</g>
	<g>
		
			<path fill="none" stroke="#ED1F24" stroke-width="3.5" stroke-linecap="round" stroke-linejoin="round" stroke-miterlimit="10" d="
			M419.2,459.6c0-6-17.6-7.6-17.6,2c0,6.3,17.6,2.5,17.6,9.3c0,8.6-17.6,8-17.6,1.1"/>
	</g>
</g>
<g id="Layer_5">
	<g>
		<path fill="none" stroke="#F38C5F" stroke-width="1.75" stroke-linecap="round" stroke-miterlimit="10" d="M247.4,447.6
			c0,0,0-19.4,0-20.3s0.6-1.2,2.8-1.2s-0.4,0,8.5,0c8.4,0,8.8,10.8,0.1,10.8c-6.2,0-6.3,0-6.3,0"/>
	</g>
	<g>
		<path fill="none" stroke="#F38C5F" stroke-width="1.75" stroke-linecap="round" stroke-miterlimit="10" d="M278.4,447.6
			c0,0-6.4-1-6.4-5.3s0-1.2,0-9.7s16.7-8.7,16.7,0c0,7.9,0,7.2,0,9.8c0,4.3-6.2,5.3-6.2,5.3"/>
	</g>
	<g>
		
			<polyline fill="none" stroke="#F38C5F" stroke-width="1.75" stroke-linecap="round" stroke-linejoin="round" stroke-miterlimit="10" points="
			296.4,426.1 296.4,447 310,447 		"/>
	</g>
	<g>
		
			<line fill="none" stroke="#F38C5F" stroke-width="1.75" stroke-linecap="round" stroke-linejoin="round" stroke-miterlimit="10" x1="316.6" y1="426.1" x2="316.6" y2="447.6"/>
	</g>
	<g>
		
			<path fill="none" stroke="#F38C5F" stroke-width="1.75" stroke-linecap="round" stroke-linejoin="round" stroke-miterlimit="10" d="
			M341.1,430.7c-2.9-6.5-18.2-5.9-17.5,7.4s16.1,11.2,17.5,5"/>
	</g>
	<g>
		
			<polyline fill="none" stroke="#F38C5F" stroke-width="1.75" stroke-linecap="round" stroke-linejoin="round" stroke-miterlimit="10" points="
			368,426.7 349,426.7 349,447 367.1,447 		"/>
	</g>
	<g>
		
			<line fill="none" stroke="#F38C5F" stroke-width="1.75" stroke-linecap="round" stroke-linejoin="round" stroke-miterlimit="10" x1="353.4" y1="436.8" x2="367" y2="436.8"/>
	</g>
	<g>
		
			<path fill="none" stroke="#F38C5F" stroke-width="1.75" stroke-linecap="round" stroke-linejoin="round" stroke-miterlimit="10" d="
			M212.4,459.9c-2.9-6.5-18.2-5.9-17.5,7.4s16.1,11.2,17.5,5"/>
	</g>
	<g>
		<path fill="none" stroke="#F38C5F" stroke-width="1.75" stroke-linecap="round" stroke-miterlimit="10" d="M227,477.2
			c0,0-6.3-0.9-6.3-5.2s0-1.2,0-9.7s16.7-8.7,16.7,0c0,7.9,0,7.2,0,9.8c0,4.3-6.1,5.2-6.1,5.2"/>
	</g>
	<g>
		<path fill="none" stroke="#F38C5F" stroke-width="1.75" stroke-linecap="round" stroke-miterlimit="10" d="M277.7,477.2
			c0,0,0-19.4,0-20.3s0.6-1.2,2.8-1.2s-0.4,0,8.5,0c8.4,0,8.8,10.8,0.1,10.8c-6.2,0-6.3,0-6.3,0"/>
	</g>
	<g>
		
			<polyline fill="none" stroke="#F38C5F" stroke-width="1.75" stroke-linecap="round" stroke-linejoin="round" stroke-miterlimit="10" points="
			301.7,456.5 301.7,477.3 315.3,477.3 		"/>
	</g>
	<g>
		
			<line fill="none" stroke="#F38C5F" stroke-width="1.75" stroke-linecap="round" stroke-linejoin="round" stroke-miterlimit="10" x1="346.9" y1="455.7" x2="346.9" y2="477.2"/>
	</g>
	<g>
		
			<polyline fill="none" stroke="#F38C5F" stroke-width="1.75" stroke-linecap="round" stroke-linejoin="round" stroke-miterlimit="10" points="
			243.4,477.1 250.3,455.7 256.9,477.1 264.4,456.3 270.5,477.1 		"/>
	</g>
	<g>
		
			<polyline fill="none" stroke="#F38C5F" stroke-width="1.75" stroke-linecap="round" stroke-linejoin="round" stroke-miterlimit="10" points="
			321.8,477.3 331.5,456.5 340.8,477.1 		"/>
	</g>
	<g>
		
			<line fill="none" stroke="#F38C5F" stroke-width="1.75" stroke-linecap="round" stroke-linejoin="round" stroke-miterlimit="10" x1="332.9" y1="468.5" x2="330.1" y2="468.5"/>
	</g>
	<g>
		
			<polyline fill="none" stroke="#F38C5F" stroke-width="1.75" stroke-linecap="round" stroke-linejoin="round" stroke-miterlimit="10" points="
			353.5,477.2 353.5,455.7 371.8,476.5 371.8,455.4 		"/>
	</g>
	<g>
		
			<line fill="none" stroke="#F38C5F" stroke-width="1.75" stroke-linecap="round" stroke-linejoin="round" stroke-miterlimit="10" x1="378.5" y1="455.4" x2="397.7" y2="455.4"/>
	</g>
	<g>
		
			<line fill="none" stroke="#F38C5F" stroke-width="1.75" stroke-linecap="round" stroke-linejoin="round" stroke-miterlimit="10" x1="388.1" y1="477.2" x2="388.1" y2="455.7"/>
	</g>
	<g>
		
			<path fill="none" stroke="#F38C5F" stroke-width="1.75" stroke-linecap="round" stroke-linejoin="round" stroke-miterlimit="10" d="
			M419.2,459.6c0-6-17.6-7.6-17.6,2c0,6.3,17.6,2.5,17.6,9.3c0,8.6-17.6,8-17.6,1.1"/>
	</g>
</g>
</svg>
