<?xml version="1.0" encoding="UTF-8" standalone="no"?>
<svg
   xmlns:dc="http://purl.org/dc/elements/1.1/"
   xmlns:cc="http://creativecommons.org/ns#"
   xmlns:rdf="http://www.w3.org/1999/02/22-rdf-syntax-ns#"
   xmlns:svg="http://www.w3.org/2000/svg"
   xmlns="http://www.w3.org/2000/svg"
   xmlns:sodipodi="http://sodipodi.sourceforge.net/DTD/sodipodi-0.dtd"
   xmlns:inkscape="http://www.inkscape.org/namespaces/inkscape"
   width="254"
   height="44"
   id="svg3922"
   version="1.1"
   inkscape:version="0.91 r13725"
   sodipodi:docname="OpenPolice_1Line.svg">
  <metadata
     id="metadata4083">
    <rdf:RDF>
      <cc:Work
         rdf:about="">
        <dc:format>image/svg+xml</dc:format>
        <dc:type
           rdf:resource="http://purl.org/dc/dcmitype/StillImage" />
        <dc:title></dc:title>
      </cc:Work>
    </rdf:RDF>
  </metadata>
  <defs
     id="defs4081" />
  <sodipodi:namedview
     pagecolor="#ffffff"
     bordercolor="#666666"
     borderopacity="1"
     objecttolerance="10"
     gridtolerance="10"
     guidetolerance="10"
     inkscape:pageopacity="0"
     inkscape:pageshadow="2"
     inkscape:window-width="1440"
     inkscape:window-height="813"
     id="namedview4079"
     showgrid="false"
     inkscape:zoom="3.8233916"
     inkscape:cx="126.2005"
     inkscape:cy="20.829208"
     inkscape:window-x="0"
     inkscape:window-y="1"
     inkscape:window-maximized="1"
     inkscape:current-layer="layer2" />
  <g
     inkscape:groupmode="layer"
     id="layer1"
     inkscape:label="Layer 1"
     style="display:inline"
     transform="translate(0,-2)">
    <rect
       style="fill:#000000;fill-opacity:1;stroke:none"
       id="rect5019"
       width="253.57674"
       height="43.684803"
       x="0.26154789"
       y="2.1196404"
       rx="7.9447064"
       ry="7.7508392" />
  </g>
  <g
     inkscape:groupmode="layer"
     id="layer2"
     inkscape:label="Layer 2"
     style="display:inline"
     transform="translate(0,-2)">
    <g
       id="g3924"
       transform="translate(0,1.2153563)">
      <title
         id="title3926">Layer 1</title>
      <g
         id="Layer_2" />
      <g
         id="Layer_4">
        <g
           id="svg_2">
          <path
             id="svg_3"
             d="m 125.39999,33.600006 c 0,0 0,-19 0,-19.899994 0,-0.899994 0.5,-1.600006 2.7,-1.600006 2.2,0 -0.29999,0 8.60001,0 8.39999,0 8.8,11.5 0.1,11.5 -6.20001,0 -6.3,0 -6.3,0"
             stroke-miterlimit="10"
             inkscape:connector-curvature="0"
             style="fill:none;stroke:#761113;stroke-width:4.5;stroke-linecap:round;stroke-miterlimit:10" />
        </g>
        <g
           id="svg_4">
          <path
             id="svg_5"
             d="m 156.79999,33.600006 c 0,0 -6.9,-0.399994 -6.9,-4.700012 0,-4.300018 0,-2 0,-10.5 0,-8.5 16.7,-8.699982 16.7,0 0,7.900024 0,8 0,10.600006 0,4.300018 -6.7,4.600006 -6.7,4.600006"
             stroke-miterlimit="10"
             inkscape:connector-curvature="0"
             style="fill:none;stroke:#761113;stroke-width:4.5;stroke-linecap:round;stroke-miterlimit:10" />
        </g>
        <g
           id="svg_6">
          <polyline
             id="svg_7"
             points="174.29998779296875,12 174.29998779296875,33.600006103515625 188,33.600006103515625 "
             stroke-miterlimit="10"
             style="fill:none;stroke:#761113;stroke-width:4.5;stroke-linecap:round;stroke-linejoin:round;stroke-miterlimit:10" />
        </g>
        <g
           id="svg_8">
          <line
             id="svg_9"
             y2="33.500008"
             x2="194.59999"
             y1="12.000006"
             x1="194.59999"
             stroke-miterlimit="10"
             style="fill:none;stroke:#761113;stroke-width:4.5;stroke-linecap:round;stroke-linejoin:round;stroke-miterlimit:10" />
        </g>
        <g
           id="svg_10">
          <path
             id="svg_11"
             d="m 219.09998,16 c -2.9,-6.5 -18.20002,-5.600006 -17.5,7.699982 0.70001,13.299988 16.1,11.200012 17.5,5"
             stroke-miterlimit="10"
             inkscape:connector-curvature="0"
             style="fill:none;stroke:#761113;stroke-width:4.5;stroke-linecap:round;stroke-linejoin:round;stroke-miterlimit:10" />
        </g>
        <g
           id="svg_12">
          <polyline
             id="svg_13"
             points="245.19998168945312,12 227,12 227,33.600006103515625 245.0999755859375,33.600006103515625 "
             stroke-miterlimit="10"
             style="fill:none;stroke:#761113;stroke-width:4.5;stroke-linecap:round;stroke-linejoin:round;stroke-miterlimit:10" />
        </g>
        <g
           id="svg_14">
          <line
             id="svg_15"
             y2="22.900005"
             x2="244.99998"
             y1="22.900005"
             x1="231.29999"
             stroke-miterlimit="10"
             style="fill:none;stroke:#761113;stroke-width:4.5;stroke-linecap:round;stroke-linejoin:round;stroke-miterlimit:10" />
        </g>
        <g
           id="svg_16" />
        <g
           id="svg_18" />
        <g
           id="svg_20" />
        <g
           id="svg_22" />
        <g
           id="svg_24" />
        <g
           id="svg_26" />
        <g
           id="svg_28" />
        <g
           id="svg_30" />
        <g
           id="svg_32" />
        <g
           id="svg_34" />
        <g
           id="svg_36" />
        <g
           id="svg_38" />
        <g
           id="svg_40">
          <path
             id="svg_41"
             d="m 20.899986,33.600006 c 0,0 -6.799995,-1.200012 -6.799995,-5.5 0,-4.299988 0,-1.200012 0,-9.700012 0,-8.5 16.699997,-8.699982 16.699997,0 0,7.900024 0,7.200012 0,9.800018 0,4.299988 -6.800003,5.399994 -6.800003,5.399994"
             stroke-miterlimit="10"
             inkscape:connector-curvature="0"
             style="fill:none;stroke:#761113;stroke-width:4.5;stroke-linecap:round;stroke-miterlimit:10" />
        </g>
        <g
           id="svg_42">
          <path
             id="svg_43"
             d="m 36.599991,33.600006 c 0,0 0,-19.399994 0,-20.299988 0,-0.899994 0.599998,-1.200012 2.799995,-1.200012 2.199997,0 -0.400002,0 8.500008,0 8.399994,0 8.799988,10.799988 0.09999,10.799988 -6.199997,0 -6.299995,0 -6.299995,0"
             stroke-miterlimit="10"
             inkscape:connector-curvature="0"
             style="fill:none;stroke:#761113;stroke-width:4.5;stroke-linecap:round;stroke-miterlimit:10" />
        </g>
        <g
           id="svg_44">
          <polyline
             id="svg_45"
             points="78.89999389648438,11.899993896484375 60.699981689453125,11.899993896484375 60.699981689453125,33.600006103515625 78.79998779296875,33.600006103515625 "
             stroke-miterlimit="10"
             style="fill:none;stroke:#761113;stroke-width:4.5;stroke-linecap:round;stroke-linejoin:round;stroke-miterlimit:10" />
        </g>
        <g
           id="svg_46">
          <line
             id="svg_47"
             y2="22.700006"
             x2="78.599991"
             y1="22.700006"
             x1="64.999985"
             stroke-miterlimit="10"
             style="fill:none;stroke:#761113;stroke-width:4.5;stroke-linecap:round;stroke-linejoin:round;stroke-miterlimit:10" />
        </g>
        <polyline
           id="svg_48"
           points="86.59999084472656,33.600006103515625 86.59999084472656,11.899993896484375 104.79998779296875,33.600006103515625 104.79998779296875,11.899993896484375 "
           stroke-miterlimit="10"
           style="fill:none;stroke:#761113;stroke-width:4.5;stroke-linecap:round;stroke-linejoin:round;stroke-miterlimit:10" />
      </g>
      <g
         id="Layer_1_1_">
        <g
           id="svg_49">
          <path
             id="svg_50"
             d="m 125.39999,33.600006 c 0,0 0,-19 0,-19.899994 0,-0.899994 0.5,-1.600006 2.7,-1.600006 2.2,0 -0.29999,0 8.60001,0 8.39999,0 8.8,11.5 0.1,11.5 -6.20001,0 -6.3,0 -6.3,0"
             stroke-miterlimit="10"
             inkscape:connector-curvature="0"
             style="fill:none;stroke:#ed1f24;stroke-width:3;stroke-linecap:round;stroke-miterlimit:10" />
        </g>
        <g
           id="svg_51">
          <path
             id="svg_52"
             d="m 156.79999,33.600006 c 0,0 -6.9,-0.399994 -6.9,-4.700012 0,-4.300018 0,-2 0,-10.5 0,-8.5 16.7,-8.699982 16.7,0 0,7.900024 0,8 0,10.600006 0,4.300018 -6.7,4.600006 -6.7,4.600006"
             stroke-miterlimit="10"
             inkscape:connector-curvature="0"
             style="fill:none;stroke:#ed1f24;stroke-width:3;stroke-linecap:round;stroke-miterlimit:10" />
        </g>
        <g
           id="svg_53">
          <polyline
             id="svg_54"
             points="174.29998779296875,12 174.29998779296875,33.600006103515625 188,33.600006103515625 "
             stroke-miterlimit="10"
             style="fill:none;stroke:#ed1f24;stroke-width:3;stroke-linecap:round;stroke-linejoin:round;stroke-miterlimit:10" />
        </g>
        <g
           id="svg_55">
          <line
             id="svg_56"
             y2="33.600006"
             x2="194.59999"
             y1="12.000006"
             x1="194.59999"
             stroke-miterlimit="10"
             style="fill:none;stroke:#ed1f24;stroke-width:3;stroke-linecap:round;stroke-linejoin:round;stroke-miterlimit:10" />
        </g>
        <g
           id="svg_57">
          <path
             id="svg_58"
             d="m 219.09998,16 c -2.9,-6.5 -18.20002,-5.600006 -17.5,7.699982 0.70001,13.299988 16.1,11.200012 17.5,5"
             stroke-miterlimit="10"
             inkscape:connector-curvature="0"
             style="fill:none;stroke:#ed1f24;stroke-width:3;stroke-linecap:round;stroke-linejoin:round;stroke-miterlimit:10" />
        </g>
        <g
           id="svg_59">
          <polyline
             id="svg_60"
             points="245.19998168945312,12 227,12 227,33.600006103515625 245.0999755859375,33.600006103515625 "
             stroke-miterlimit="10"
             style="fill:none;stroke:#ed1f24;stroke-width:3;stroke-linecap:round;stroke-linejoin:round;stroke-miterlimit:10" />
        </g>
        <g
           id="svg_61">
          <line
             id="svg_62"
             y2="22.900005"
             x2="244.99998"
             y1="22.900005"
             x1="231.29999"
             stroke-miterlimit="10"
             style="fill:none;stroke:#ed1f24;stroke-width:3;stroke-linecap:round;stroke-linejoin:round;stroke-miterlimit:10" />
        </g>
        <g
           id="svg_63" />
        <g
           id="svg_65" />
        <g
           id="svg_67" />
        <g
           id="svg_69" />
        <g
           id="svg_71" />
        <g
           id="svg_73" />
        <g
           id="svg_75" />
        <g
           id="svg_77" />
        <g
           id="svg_79" />
        <g
           id="svg_81" />
        <g
           id="svg_83" />
        <g
           id="svg_85" />
        <g
           id="svg_87">
          <path
             id="svg_88"
             d="m 20.899986,33.600006 c 0,0 -6.799995,-1.200012 -6.799995,-5.5 0,-4.299988 0,-1.200012 0,-9.700012 0,-8.5 16.699997,-8.699982 16.699997,0 0,7.900024 0,7.200012 0,9.800018 0,4.299988 -6.800003,5.399994 -6.800003,5.399994"
             stroke-miterlimit="10"
             inkscape:connector-curvature="0"
             style="fill:none;stroke:#ed1f24;stroke-width:3;stroke-linecap:round;stroke-miterlimit:10" />
        </g>
        <g
           id="svg_89">
          <path
             id="svg_90"
             d="m 36.599991,33.600006 c 0,0 0,-19.399994 0,-20.299988 0,-0.899994 0.599998,-1.200012 2.799995,-1.200012 2.199997,0 -0.400002,0 8.500008,0 8.399994,0 8.799988,10.799988 0.09999,10.799988 -6.199997,0 -6.299995,0 -6.299995,0"
             stroke-miterlimit="10"
             inkscape:connector-curvature="0"
             style="fill:none;stroke:#ed1f24;stroke-width:3;stroke-linecap:round;stroke-miterlimit:10" />
        </g>
        <g
           id="svg_91">
          <polyline
             id="svg_92"
             points="78.89999389648438,11.899993896484375 60.699981689453125,11.899993896484375 60.699981689453125,33.600006103515625 78.79998779296875,33.600006103515625 "
             stroke-miterlimit="10"
             style="fill:none;stroke:#ed1f24;stroke-width:3;stroke-linecap:round;stroke-linejoin:round;stroke-miterlimit:10" />
        </g>
        <g
           id="svg_93">
          <line
             id="svg_94"
             y2="22.700006"
             x2="78.599991"
             y1="22.700006"
             x1="64.999985"
             stroke-miterlimit="10"
             style="fill:none;stroke:#ed1f24;stroke-width:3;stroke-linecap:round;stroke-linejoin:round;stroke-miterlimit:10" />
        </g>
        <polyline
           id="svg_95"
           points="86.59999084472656,33.600006103515625 86.59999084472656,11.899993896484375 104.79998779296875,33.600006103515625 104.79998779296875,11.899993896484375 "
           stroke-miterlimit="10"
           style="fill:none;stroke:#ed1f24;stroke-width:3;stroke-linecap:round;stroke-linejoin:round;stroke-miterlimit:10" />
      </g>
      <g
         id="Layer_3">
        <g
           id="svg_96">
          <path
             id="svg_97"
             d="m 125.39999,33.600006 c 0,0 0,-19 0,-19.899994 0,-0.899994 0.5,-1.600006 2.7,-1.600006 2.2,0 -0.29999,0 8.60001,0 8.39999,0 8.8,11.5 0.1,11.5 -6.20001,0 -6.3,0 -6.3,0"
             stroke-miterlimit="10"
             inkscape:connector-curvature="0"
             style="fill:none;stroke:#f38c5f;stroke-width:1.75;stroke-linecap:round;stroke-miterlimit:10" />
        </g>
        <g
           id="svg_98">
          <path
             id="svg_99"
             d="m 156.79999,33.600006 c 0,0 -6.9,-0.399994 -6.9,-4.700012 0,-4.300018 0,-2 0,-10.5 0,-8.5 16.7,-8.699982 16.7,0 0,7.900024 0,8 0,10.600006 0,4.300018 -6.7,4.600006 -6.7,4.600006"
             stroke-miterlimit="10"
             inkscape:connector-curvature="0"
             style="fill:none;stroke:#f38c5f;stroke-width:1.75;stroke-linecap:round;stroke-miterlimit:10" />
        </g>
        <g
           id="svg_100">
          <polyline
             id="svg_101"
             points="174.29998779296875,12 174.29998779296875,33.600006103515625 188,33.600006103515625 "
             stroke-miterlimit="10"
             style="fill:none;stroke:#f38c5f;stroke-width:1.75;stroke-linecap:round;stroke-linejoin:round;stroke-miterlimit:10" />
        </g>
        <g
           id="svg_102">
          <line
             id="svg_103"
             y2="33.500008"
             x2="194.59999"
             y1="12.000006"
             x1="194.59999"
             stroke-miterlimit="10"
             style="fill:none;stroke:#f38c5f;stroke-width:1.75;stroke-linecap:round;stroke-linejoin:round;stroke-miterlimit:10" />
        </g>
        <g
           id="svg_104">
          <path
             id="svg_105"
             d="m 219.09998,16 c -2.9,-6.5 -18.20002,-5.600006 -17.5,7.699982 0.70001,13.299988 16.1,11.200012 17.5,5"
             stroke-miterlimit="10"
             inkscape:connector-curvature="0"
             style="fill:none;stroke:#f38c5f;stroke-width:1.75;stroke-linecap:round;stroke-linejoin:round;stroke-miterlimit:10" />
        </g>
        <g
           id="svg_106">
          <polyline
             id="svg_107"
             points="245.19998168945312,12 227,12 227,33.600006103515625 245.0999755859375,33.600006103515625 "
             stroke-miterlimit="10"
             style="fill:none;stroke:#f38c5f;stroke-width:1.75;stroke-linecap:round;stroke-linejoin:round;stroke-miterlimit:10" />
        </g>
        <g
           id="svg_108">
          <line
             id="svg_109"
             y2="22.900005"
             x2="244.99998"
             y1="22.900005"
             x1="231.29999"
             stroke-miterlimit="10"
             style="fill:none;stroke:#f38c5f;stroke-width:1.75;stroke-linecap:round;stroke-linejoin:round;stroke-miterlimit:10" />
        </g>
        <g
           id="svg_110" />
        <g
           id="svg_112" />
        <g
           id="svg_114" />
        <g
           id="svg_116" />
        <g
           id="svg_118" />
        <g
           id="svg_120" />
        <g
           id="svg_122" />
        <g
           id="svg_124" />
        <g
           id="svg_126" />
        <g
           id="svg_128" />
        <g
           id="svg_130" />
        <g
           id="svg_132" />
        <g
           id="svg_134">
          <path
             id="svg_135"
             d="m 20.899986,33.600006 c 0,0 -6.799995,-1.200012 -6.799995,-5.5 0,-4.299988 0,-1.200012 0,-9.700012 0,-8.5 16.699997,-8.699982 16.699997,0 0,7.900024 0,7.200012 0,9.800018 0,4.299988 -6.800003,5.399994 -6.800003,5.399994"
             stroke-miterlimit="10"
             inkscape:connector-curvature="0"
             style="fill:none;stroke:#f38c5f;stroke-width:1.75;stroke-linecap:round;stroke-miterlimit:10" />
        </g>
        <g
           id="svg_136">
          <path
             id="svg_137"
             d="m 36.599991,33.600006 c 0,0 0,-19.399994 0,-20.299988 0,-0.899994 0.599998,-1.200012 2.799995,-1.200012 2.199997,0 -0.400002,0 8.500008,0 8.399994,0 8.799988,10.799988 0.09999,10.799988 -6.199997,0 -6.299995,0 -6.299995,0"
             stroke-miterlimit="10"
             inkscape:connector-curvature="0"
             style="fill:none;stroke:#f38c5f;stroke-width:1.75;stroke-linecap:round;stroke-miterlimit:10" />
        </g>
        <g
           id="svg_138">
          <polyline
             id="svg_139"
             points="78.89999389648438,11.899993896484375 60.699981689453125,11.899993896484375 60.699981689453125,33.600006103515625 78.79998779296875,33.600006103515625 "
             stroke-miterlimit="10"
             style="fill:none;stroke:#f38c5f;stroke-width:1.75;stroke-linecap:round;stroke-linejoin:round;stroke-miterlimit:10" />
        </g>
        <g
           id="svg_140">
          <line
             id="svg_141"
             y2="22.700006"
             x2="78.599991"
             y1="22.700006"
             x1="64.999985"
             stroke-miterlimit="10"
             style="fill:none;stroke:#f38c5f;stroke-width:1.75;stroke-linecap:round;stroke-linejoin:round;stroke-miterlimit:10" />
        </g>
        <g
           id="svg_142">
          <polyline
             id="svg_143"
             points="86.59999084472656,33.600006103515625 86.59999084472656,11.899993896484375 104.79998779296875,33.600006103515625 104.79998779296875,11.899993896484375 "
             stroke-miterlimit="10"
             style="fill:none;stroke:#f38c5f;stroke-width:1.75;stroke-linecap:round;stroke-linejoin:round;stroke-miterlimit:10" />
        </g>
      </g>
      <g
         id="Layer_5">
        <path
           id="svg_144"
           d="m 108.89999,40.100006 -97.700001,0 c -2.800003,0 -5,-2.200012 -5,-5 l 0,-24.600006 c 0,-2.799988 2.199997,-5 5,-5 l 97.600001,0 c 2.8,0 5,2.200012 5,5 l 0,24.600006 c 0.1,2.799988 -2.2,5 -4.9,5 z"
           stroke-miterlimit="10"
           inkscape:connector-curvature="0"
           style="fill:none;stroke:#4c656d;stroke-width:4.5;stroke-linecap:round;stroke-linejoin:round;stroke-miterlimit:10" />
        <path
           id="svg_145"
           d="m 108.89999,40.100006 -97.700001,0 c -2.800003,0 -5,-2.200012 -5,-5 l 0,-24.600006 c 0,-2.799988 2.199997,-5 5,-5 l 97.600001,0 c 2.8,0 5,2.200012 5,5 l 0,24.600006 c 0.1,2.799988 -2.2,5 -4.9,5 z"
           stroke-miterlimit="10"
           inkscape:connector-curvature="0"
           style="fill:none;stroke:#2b3493;stroke-width:3;stroke-linecap:round;stroke-linejoin:round;stroke-miterlimit:10" />
        <path
           id="svg_146"
           d="m 108.89999,40.100006 -97.700001,0 c -2.800003,0 -5,-2.200012 -5,-5 l 0,-24.600006 c 0,-2.799988 2.199997,-5 5,-5 l 97.600001,0 c 2.8,0 5,2.200012 5,5 l 0,24.600006 c 0.1,2.799988 -2.2,5 -4.9,5 z"
           stroke-miterlimit="10"
           inkscape:connector-curvature="0"
           style="fill:none;stroke:#63c6ff;stroke-width:1.75;stroke-linecap:round;stroke-linejoin:round;stroke-miterlimit:10" />
      </g>
    </g>
  </g>
</svg>
