<?xml version="1.0" encoding="UTF-8" standalone="no"?>
<!-- Generator: Adobe Illustrator 19.1.0, SVG Export Plug-In . SVG Version: 6.00 Build 0)  -->

<svg
   xmlns:dc="http://purl.org/dc/elements/1.1/"
   xmlns:cc="http://creativecommons.org/ns#"
   xmlns:rdf="http://www.w3.org/1999/02/22-rdf-syntax-ns#"
   xmlns:svg="http://www.w3.org/2000/svg"
   xmlns="http://www.w3.org/2000/svg"
   xmlns:sodipodi="http://sodipodi.sourceforge.net/DTD/sodipodi-0.dtd"
   xmlns:inkscape="http://www.inkscape.org/namespaces/inkscape"
   version="1.1"
   id="Layer_1"
   x="0px"
   y="0px"
   viewBox="0 0 500 500"
   xml:space="preserve"
   inkscape:version="0.91 r13725"
   sodipodi:docname="OpenPolice_2Line.svg"
   width="500"
   height="500"
   inkscape:export-filename="/Volumes/_MoData/WOTP/OpenPoliceComplaints/images/Flex-Complaints_Sign/OpenPolice_2Line.png"
   inkscape:export-xdpi="180"
   inkscape:export-ydpi="180"><metadata
     id="metadata345"><rdf:RDF><cc:Work
         rdf:about=""><dc:format>image/svg+xml</dc:format><dc:type
           rdf:resource="http://purl.org/dc/dcmitype/StillImage" /><dc:title></dc:title></cc:Work></rdf:RDF></metadata><defs
     id="defs343" /><sodipodi:namedview
     pagecolor="#ffffff"
     bordercolor="#666666"
     borderopacity="1"
     objecttolerance="10"
     gridtolerance="10"
     guidetolerance="10"
     inkscape:pageopacity="0"
     inkscape:pageshadow="2"
     inkscape:window-width="1440"
     inkscape:window-height="813"
     id="namedview341"
     showgrid="false"
     inkscape:zoom="1.1797547"
     inkscape:cx="238.99559"
     inkscape:cy="249.01973"
     inkscape:window-x="0"
     inkscape:window-y="1"
     inkscape:window-maximized="1"
     inkscape:current-layer="layer7" /><style
     type="text/css"
     id="style3">
	.st0{fill:none;stroke:#391213;stroke-width:16;stroke-linecap:round;stroke-miterlimit:10;}
	.st1{fill:none;stroke:#391213;stroke-width:16;stroke-linecap:round;stroke-linejoin:round;stroke-miterlimit:10;}
	.st2{fill:none;stroke:#761214;stroke-width:12;stroke-linecap:round;stroke-miterlimit:10;}
	.st3{fill:none;stroke:#761214;stroke-width:12;stroke-linecap:round;stroke-linejoin:round;stroke-miterlimit:10;}
	.st4{fill:none;stroke:#EC2327;stroke-width:7;stroke-linecap:round;stroke-miterlimit:10;}
	.st5{fill:none;stroke:#EC2327;stroke-width:7;stroke-linecap:round;stroke-linejoin:round;stroke-miterlimit:10;}
	.st6{fill:none;stroke:#F38C5F;stroke-width:4;stroke-linecap:round;stroke-miterlimit:10;}
	.st7{fill:none;stroke:#F38C5F;stroke-width:4;stroke-linecap:round;stroke-linejoin:round;stroke-miterlimit:10;}
	.st8{fill:none;stroke:#28373A;stroke-width:18;stroke-miterlimit:10;}
	.st9{fill:none;stroke:#4B656D;stroke-width:12;stroke-miterlimit:10;}
	.st10{fill:none;stroke:#010BAA;stroke-width:8;stroke-miterlimit:10;}
	.st11{fill:none;stroke:#A2DDF4;stroke-width:4.5;stroke-miterlimit:10;}
	.st12{fill:none;stroke:#761113;stroke-width:5;stroke-linecap:round;stroke-miterlimit:10;}
	.st13{fill:none;stroke:#761113;stroke-width:5;stroke-linecap:round;stroke-linejoin:round;stroke-miterlimit:10;}
	.st14{fill:none;stroke:#ED1F24;stroke-width:3.5;stroke-linecap:round;stroke-miterlimit:10;}
	.st15{fill:none;stroke:#ED1F24;stroke-width:3.5;stroke-linecap:round;stroke-linejoin:round;stroke-miterlimit:10;}
	.st16{fill:none;stroke:#F38C5F;stroke-width:1.75;stroke-linecap:round;stroke-miterlimit:10;}
	.st17{fill:none;stroke:#F38C5F;stroke-width:1.75;stroke-linecap:round;stroke-linejoin:round;stroke-miterlimit:10;}
</style><g
     id="Layer_2"
     transform="translate(0,-558)"><g
       id="g6" /></g><g
     inkscape:groupmode="layer"
     id="layer1"
     inkscape:label="Layer 1"
     style="display:inline"
     transform="translate(0,-292)"><rect
       style="fill:#000000;fill-opacity:1;stroke:none;stroke-opacity:1"
       id="rect4484"
       width="494.08432"
       height="494.08432"
       x="3.9093578"
       y="295.49048"
       rx="18.496576"
       ry="18.496576" /></g><g
     inkscape:groupmode="layer"
     id="layer5"
     inkscape:label="Blue4"
     transform="translate(0,-292)"><rect
       style="fill:none;fill-opacity:1;stroke:#28373a;stroke-width:20.80864906;stroke-miterlimit:4;stroke-dasharray:none;stroke-opacity:1"
       id="rect4646"
       width="442.04062"
       height="442.04062"
       x="30.27173"
       y="321.61969"
       rx="18.391514"
       ry="18.530254" /></g><g
     inkscape:groupmode="layer"
     id="layer4"
     inkscape:label="Blue3"
     style="display:inline"
     transform="translate(0,-292)"><rect
       style="fill:none;fill-opacity:1;stroke:#4b656d;stroke-width:13.88490391;stroke-miterlimit:4;stroke-dasharray:none;stroke-opacity:1"
       id="rect4643"
       width="442.87335"
       height="442.05316"
       x="29.445314"
       y="321.6134"
       rx="18.358385"
       ry="18.496977" /></g><g
     inkscape:groupmode="layer"
     id="layer2"
     inkscape:label="Blue2"
     style="display:inline"
     transform="translate(0,-292)"><rect
       style="fill:none;fill-opacity:1;stroke:#010baa;stroke-width:9.25668812;stroke-miterlimit:4;stroke-dasharray:none;stroke-opacity:1"
       id="rect4638"
       width="442.87738"
       height="442.05725"
       x="29.443279"
       y="321.61133"
       rx="18.358555"
       ry="18.49715" /></g><g
     inkscape:groupmode="layer"
     id="layer3"
     inkscape:label="Blue1"
     style="display:inline"
     transform="translate(0,-292)"><rect
       style="fill:none;fill-opacity:1;stroke:#a2ddf4;stroke-width:5.20216227;stroke-miterlimit:4;stroke-dasharray:none;stroke-opacity:1"
       id="rect4636"
       width="442.88583"
       height="442.88583"
       x="29.587465"
       y="320.78702"
       rx="18.324905"
       ry="18.497499" /></g><g
     inkscape:groupmode="layer"
     id="layer6"
     inkscape:label="Open"
     style="display:inline"
     transform="translate(0,-292)"><g
       id="Open_and_box"
       transform="matrix(1.2780911,0,0,1.2780911,-139.11694,-3.4689959)"><g
         id="Layer_6"><g
           id="g12"><path
             class="st0"
             d="m 181.5,408 c 0,0 -22.2,-3.7 -22.2,-20.6 0,-16.9 0,-4.7 0,-37.7 0,-33 52.3,-33.5 52.3,0 0,30.5 0,27.8 0,37.8 0,16.8 -21.3,20.5 -21.3,20.5"
             id="path14"
             inkscape:connector-curvature="0"
             style="fill:none;stroke:#391213;stroke-width:16;stroke-linecap:round;stroke-miterlimit:10" /></g><g
           id="g16"><path
             class="st0"
             d="m 239.8,408 c 0,0 0,-75 0,-78.5 0,-3.5 1.8,-4.7 8,-4.7 6.2,0 -1.2,0 24.2,0 24,0 25,41.6 0.2,41.6 -17.8,0 -23.5,0 -23.5,0"
             id="path18"
             inkscape:connector-curvature="0"
             style="fill:none;stroke:#391213;stroke-width:16;stroke-linecap:round;stroke-miterlimit:10" /></g><g
           id="g20"><line
             class="st1"
             x1="328.79999"
             y1="366.39999"
             x2="369.79999"
             y2="366.39999"
             id="line22"
             style="fill:none;stroke:#391213;stroke-width:16;stroke-linecap:round;stroke-linejoin:round;stroke-miterlimit:10" /></g><g
           id="g24"><path
             class="st1"
             d="m 371,324.8 c 0,0 -32,0 -40,0 -8,0 -10.5,6.7 -10.5,9.7 0,3 0,58.5 0,65 0,6.5 6.8,9.8 9.8,9.8 3,0 45.8,0 45.8,0"
             id="path26"
             inkscape:connector-curvature="0"
             style="fill:none;stroke:#391213;stroke-width:16;stroke-linecap:round;stroke-linejoin:round;stroke-miterlimit:10" /></g><g
           id="g28"><path
             class="st1"
             d="m 400,409.2 c 0,0 0,-65.2 0,-74 0,-8.8 10.7,-14.5 15.2,0 4.5,14.5 16.5,52.8 21,67.5 3.8,12.5 16.2,6.8 16.2,0 0,-6.8 0,-76.2 0,-76.2"
             id="path30"
             inkscape:connector-curvature="0"
             style="fill:none;stroke:#391213;stroke-width:16;stroke-linecap:round;stroke-linejoin:round;stroke-miterlimit:10" /></g></g><g
         id="Layer_6_copy_2"><g
           id="g33"><path
             class="st2"
             d="m 181.5,408 c 0,0 -22.2,-3.7 -22.2,-20.6 0,-16.9 0,-4.7 0,-37.7 0,-33 52.3,-33.5 52.3,0 0,30.5 0,27.8 0,37.8 0,16.8 -21.3,20.5 -21.3,20.5"
             id="path35"
             inkscape:connector-curvature="0"
             style="fill:none;stroke:#761214;stroke-width:12;stroke-linecap:round;stroke-miterlimit:10" /></g><g
           id="g37"><path
             class="st2"
             d="m 239.8,408 c 0,0 0,-75 0,-78.5 0,-3.5 1.8,-4.7 8,-4.7 6.2,0 -1.2,0 24.2,0 24,0 25,41.6 0.2,41.6 -17.8,0 -23.5,0 -23.5,0"
             id="path39"
             inkscape:connector-curvature="0"
             style="fill:none;stroke:#761214;stroke-width:12;stroke-linecap:round;stroke-miterlimit:10" /></g><g
           id="g41"><line
             class="st3"
             x1="328.79999"
             y1="366.39999"
             x2="369.79999"
             y2="366.39999"
             id="line43"
             style="fill:none;stroke:#761214;stroke-width:12;stroke-linecap:round;stroke-linejoin:round;stroke-miterlimit:10" /></g><g
           id="g45"><path
             class="st3"
             d="m 371,324.8 c 0,0 -32,0 -40,0 -8,0 -10.5,6.7 -10.5,9.7 0,3 0,58.5 0,65 0,6.5 6.8,9.8 9.8,9.8 3,0 45.8,0 45.8,0"
             id="path47"
             inkscape:connector-curvature="0"
             style="fill:none;stroke:#761214;stroke-width:12;stroke-linecap:round;stroke-linejoin:round;stroke-miterlimit:10" /></g><g
           id="g49"><path
             class="st3"
             d="m 400,409.2 c 0,0 0,-65.2 0,-74 0,-8.8 10.7,-14.5 15.2,0 4.5,14.5 16.5,52.8 21,67.5 3.8,12.5 16.2,6.8 16.2,0 0,-6.8 0,-76.2 0,-76.2"
             id="path51"
             inkscape:connector-curvature="0"
             style="fill:none;stroke:#761214;stroke-width:12;stroke-linecap:round;stroke-linejoin:round;stroke-miterlimit:10" /></g></g><g
         id="Layer_6_copy"><g
           id="g54"><path
             class="st4"
             d="m 181.5,408 c 0,0 -22.2,-3.7 -22.2,-20.6 0,-16.9 0,-4.7 0,-37.7 0,-33 52.3,-33.5 52.3,0 0,30.5 0,27.8 0,37.8 0,16.8 -21.3,20.5 -21.3,20.5"
             id="path56"
             inkscape:connector-curvature="0"
             style="fill:none;stroke:#ec2327;stroke-width:7;stroke-linecap:round;stroke-miterlimit:10" /></g><g
           id="g58"><path
             class="st4"
             d="m 239.8,408 c 0,0 0,-75 0,-78.5 0,-3.5 1.8,-4.7 8,-4.7 6.2,0 -1.2,0 24.2,0 24,0 25,41.6 0.2,41.6 -17.8,0 -23.5,0 -23.5,0"
             id="path60"
             inkscape:connector-curvature="0"
             style="fill:none;stroke:#ec2327;stroke-width:7;stroke-linecap:round;stroke-miterlimit:10" /></g><g
           id="g62"><line
             class="st5"
             x1="328.79999"
             y1="366.39999"
             x2="369.79999"
             y2="366.39999"
             id="line64"
             style="fill:none;stroke:#ec2327;stroke-width:7;stroke-linecap:round;stroke-linejoin:round;stroke-miterlimit:10" /></g><g
           id="g66"><path
             class="st5"
             d="m 371,324.8 c 0,0 -32,0 -40,0 -8,0 -10.5,6.7 -10.5,9.7 0,3 0,58.5 0,65 0,6.5 6.8,9.8 9.8,9.8 3,0 45.8,0 45.8,0"
             id="path68"
             inkscape:connector-curvature="0"
             style="fill:none;stroke:#ec2327;stroke-width:7;stroke-linecap:round;stroke-linejoin:round;stroke-miterlimit:10" /></g><g
           id="g70"><path
             class="st5"
             d="m 400,409.2 c 0,0 0,-65.2 0,-74 0,-8.8 10.7,-14.5 15.2,0 4.5,14.5 16.5,52.8 21,67.5 3.8,12.5 16.2,6.8 16.2,0 0,-6.8 0,-76.2 0,-76.2"
             id="path72"
             inkscape:connector-curvature="0"
             style="fill:none;stroke:#ec2327;stroke-width:7;stroke-linecap:round;stroke-linejoin:round;stroke-miterlimit:10" /></g></g><g
         id="g74"><path
           class="st6"
           d="m 181.5,408 c 0,0 -22.2,-3.7 -22.2,-20.6 0,-16.9 0,-4.7 0,-37.7 0,-33 52.3,-33.5 52.3,0 0,30.5 0,27.8 0,37.8 0,16.8 -21.3,20.5 -21.3,20.5"
           id="path76"
           inkscape:connector-curvature="0"
           style="fill:none;stroke:#f38c5f;stroke-width:4;stroke-linecap:round;stroke-miterlimit:10" /></g><g
         id="g78"><path
           class="st6"
           d="m 239.8,408 c 0,0 0,-75 0,-78.5 0,-3.5 1.8,-4.7 8,-4.7 6.2,0 -1.2,0 24.2,0 24,0 25,41.6 0.2,41.6 -17.8,0 -23.5,0 -23.5,0"
           id="path80"
           inkscape:connector-curvature="0"
           style="fill:none;stroke:#f38c5f;stroke-width:4;stroke-linecap:round;stroke-miterlimit:10" /></g><g
         id="g82"><line
           class="st7"
           x1="328.79999"
           y1="366.39999"
           x2="369.79999"
           y2="366.39999"
           id="line84"
           style="fill:none;stroke:#f38c5f;stroke-width:4;stroke-linecap:round;stroke-linejoin:round;stroke-miterlimit:10" /></g><g
         id="g86"><path
           class="st7"
           d="m 371,324.8 c 0,0 -32,0 -40,0 -8,0 -10.5,6.7 -10.5,9.7 0,3 0,58.5 0,65 0,6.5 6.8,9.8 9.8,9.8 3,0 45.8,0 45.8,0"
           id="path88"
           inkscape:connector-curvature="0"
           style="fill:none;stroke:#f38c5f;stroke-width:4;stroke-linecap:round;stroke-linejoin:round;stroke-miterlimit:10" /></g><g
         id="g90"><path
           class="st7"
           d="m 400,409.2 c 0,0 0,-65.2 0,-74 0,-8.8 10.7,-14.5 15.2,0 4.5,14.5 16.5,52.8 21,67.5 3.8,12.5 16.2,6.8 16.2,0 0,-6.8 0,-76.2 0,-76.2"
           id="path92"
           inkscape:connector-curvature="0"
           style="fill:none;stroke:#f38c5f;stroke-width:4;stroke-linecap:round;stroke-linejoin:round;stroke-miterlimit:10" /></g><g
         id="g94" /><g
         id="g98" /><g
         id="g102" /><g
         id="g106" /></g></g><g
     inkscape:groupmode="layer"
     id="layer9"
     inkscape:label="Police3"
     style="display:inline"
     transform="translate(0,-292)"><g
       id="Layer_3"
       transform="matrix(3.0901522,0,0,3.7295427,-697.76824,-1017.0703)"><g
         id="g111"><path
           class="st12"
           d="m 247.4,447.6 c 0,0 0,-19.4 0,-20.3 0,-0.9 0.6,-1.2 2.8,-1.2 2.2,0 -0.4,0 8.5,0 8.4,0 8.8,10.8 0.1,10.8 -6.2,0 -6.3,0 -6.3,0"
           id="path113"
           inkscape:connector-curvature="0"
           style="fill:none;stroke:#761113;stroke-width:5;stroke-linecap:round;stroke-miterlimit:10" /></g><g
         id="g115"><path
           class="st12"
           d="m 278,447.6 c 0,0 -6.1,-1 -6.1,-5.3 0,-4.3 0,-1.2 0,-9.7 0,-8.5 16.7,-8.7 16.7,0 0,7.9 0,7.2 0,9.8 0,4.3 -6.8,5.3 -6.8,5.3"
           id="path117"
           inkscape:connector-curvature="0"
           style="fill:none;stroke:#761113;stroke-width:5;stroke-linecap:round;stroke-miterlimit:10" /></g><g
         id="g119"><polyline
           class="st13"
           points="296.4,426.1 296.4,447 310,447   "
           id="polyline121"
           style="fill:none;stroke:#761113;stroke-width:5;stroke-linecap:round;stroke-linejoin:round;stroke-miterlimit:10" /></g><g
         id="g123"><line
           class="st13"
           x1="315.60001"
           y1="426.10001"
           x2="315.60001"
           y2="447.60001"
           id="line125"
           style="fill:none;stroke:#761113;stroke-width:5;stroke-linecap:round;stroke-linejoin:round;stroke-miterlimit:10" /></g><g
         id="g127"><path
           class="st13"
           d="m 341.1,430.7 c -2.9,-6.5 -18.2,-5.9 -17.5,7.4 0.7,13.3 16.1,11.2 17.5,5"
           id="path129"
           inkscape:connector-curvature="0"
           style="fill:none;stroke:#761113;stroke-width:5;stroke-linecap:round;stroke-linejoin:round;stroke-miterlimit:10" /></g><g
         id="g131"><polyline
           class="st13"
           points="368,426.7 349,426.7 349,447 367.1,447   "
           id="polyline133"
           style="fill:none;stroke:#761113;stroke-width:5;stroke-linecap:round;stroke-linejoin:round;stroke-miterlimit:10" /></g><g
         id="g135"><line
           class="st13"
           x1="353.39999"
           y1="436.79999"
           x2="367"
           y2="436.79999"
           id="line137"
           style="fill:none;stroke:#761113;stroke-width:5;stroke-linecap:round;stroke-linejoin:round;stroke-miterlimit:10" /></g><g
         id="g139" /><g
         id="g143" /><g
         id="g147" /><g
         id="g151" /><g
         id="g155" /><g
         id="g159" /><g
         id="g163" /><g
         id="g167" /><g
         id="g171" /><g
         id="g175" /><g
         id="g179" /><g
         id="g183" /></g></g><g
     inkscape:groupmode="layer"
     id="layer8"
     inkscape:label="Police2"
     style="display:inline"
     transform="translate(0,-292)"><g
       id="Layer_4"
       transform="matrix(3.0901522,0,0,3.7295427,-697.76824,-1017.0703)"><g
         id="g188"><path
           class="st14"
           d="m 247.4,447.6 c 0,0 0,-19.4 0,-20.3 0,-0.9 0.6,-1.2 2.8,-1.2 2.2,0 -0.4,0 8.5,0 8.4,0 8.8,10.8 0.1,10.8 -6.2,0 -6.3,0 -6.3,0"
           id="path190"
           inkscape:connector-curvature="0"
           style="fill:none;stroke:#ed1f24;stroke-width:3.5;stroke-linecap:round;stroke-miterlimit:10" /></g><g
         id="g192"><path
           class="st14"
           d="m 278,447.6 c 0,0 -6.1,-1 -6.1,-5.3 0,-4.3 0,-1.2 0,-9.7 0,-8.5 16.7,-8.7 16.7,0 0,7.9 0,7.2 0,9.8 0,4.3 -6.8,5.3 -6.8,5.3"
           id="path194"
           inkscape:connector-curvature="0"
           style="fill:none;stroke:#ed1f24;stroke-width:3.5;stroke-linecap:round;stroke-miterlimit:10" /></g><g
         id="g196"><polyline
           class="st15"
           points="296.4,426.1 296.4,447 310,447   "
           id="polyline198"
           style="fill:none;stroke:#ed1f24;stroke-width:3.5;stroke-linecap:round;stroke-linejoin:round;stroke-miterlimit:10" /></g><g
         id="g200"><line
           class="st15"
           x1="315.60001"
           y1="426.10001"
           x2="315.60001"
           y2="447.60001"
           id="line202"
           style="fill:none;stroke:#ed1f24;stroke-width:3.5;stroke-linecap:round;stroke-linejoin:round;stroke-miterlimit:10" /></g><g
         id="g204"><path
           class="st15"
           d="m 341.1,430.7 c -2.9,-6.5 -18.2,-5.9 -17.5,7.4 0.7,13.3 16.1,11.2 17.5,5"
           id="path206"
           inkscape:connector-curvature="0"
           style="fill:none;stroke:#ed1f24;stroke-width:3.5;stroke-linecap:round;stroke-linejoin:round;stroke-miterlimit:10" /></g><g
         id="g208"><polyline
           class="st15"
           points="368,426.7 349,426.7 349,447 367.1,447   "
           id="polyline210"
           style="fill:none;stroke:#ed1f24;stroke-width:3.5;stroke-linecap:round;stroke-linejoin:round;stroke-miterlimit:10" /></g><g
         id="g212"><line
           class="st15"
           x1="353.39999"
           y1="436.79999"
           x2="367"
           y2="436.79999"
           id="line214"
           style="fill:none;stroke:#ed1f24;stroke-width:3.5;stroke-linecap:round;stroke-linejoin:round;stroke-miterlimit:10" /></g><g
         id="g216" /><g
         id="g220" /><g
         id="g224" /><g
         id="g228" /><g
         id="g232" /><g
         id="g236" /><g
         id="g240" /><g
         id="g244" /><g
         id="g248" /><g
         id="g252" /><g
         id="g256" /><g
         id="g260" /></g></g><g
     inkscape:groupmode="layer"
     id="layer7"
     inkscape:label="Police1"
     style="display:inline"
     transform="translate(0,-292)"><g
       id="Layer_5"
       transform="matrix(3.0901522,0,0,3.7295427,-697.76824,-1017.0703)"><g
         id="g265"><path
           class="st16"
           d="m 247.4,447.6 c 0,0 0,-19.4 0,-20.3 0,-0.9 0.6,-1.2 2.8,-1.2 2.2,0 -0.4,0 8.5,0 8.4,0 8.8,10.8 0.1,10.8 -6.2,0 -6.3,0 -6.3,0"
           id="path267"
           inkscape:connector-curvature="0"
           style="fill:none;stroke:#f38c5f;stroke-width:1.75;stroke-linecap:round;stroke-miterlimit:10" /></g><g
         id="g269"><path
           class="st16"
           d="m 278,447.6 c 0,0 -6.1,-1 -6.1,-5.3 0,-4.3 0,-1.2 0,-9.7 0,-8.5 16.7,-8.7 16.7,0 0,7.9 0,7.2 0,9.8 0,4.3 -6.8,5.3 -6.8,5.3"
           id="path271"
           inkscape:connector-curvature="0"
           style="fill:none;stroke:#f38c5f;stroke-width:1.75;stroke-linecap:round;stroke-miterlimit:10" /></g><g
         id="g273"><polyline
           class="st17"
           points="296.4,426.1 296.4,447 310,447   "
           id="polyline275"
           style="fill:none;stroke:#f38c5f;stroke-width:1.75;stroke-linecap:round;stroke-linejoin:round;stroke-miterlimit:10" /></g><g
         id="g277"><line
           class="st17"
           x1="315.60001"
           y1="426.10001"
           x2="315.60001"
           y2="447.60001"
           id="line279"
           style="fill:none;stroke:#f38c5f;stroke-width:1.75;stroke-linecap:round;stroke-linejoin:round;stroke-miterlimit:10" /></g><g
         id="g281"><path
           class="st17"
           d="m 341.1,430.7 c -2.9,-6.5 -18.2,-5.9 -17.5,7.4 0.7,13.3 16.1,11.2 17.5,5"
           id="path283"
           inkscape:connector-curvature="0"
           style="fill:none;stroke:#f38c5f;stroke-width:1.75;stroke-linecap:round;stroke-linejoin:round;stroke-miterlimit:10" /></g><g
         id="g285"><polyline
           class="st17"
           points="368,426.7 349,426.7 349,447 367.1,447   "
           id="polyline287"
           style="fill:none;stroke:#f38c5f;stroke-width:1.75;stroke-linecap:round;stroke-linejoin:round;stroke-miterlimit:10" /></g><g
         id="g289"><line
           class="st17"
           x1="353.39999"
           y1="436.79999"
           x2="367"
           y2="436.79999"
           id="line291"
           style="fill:none;stroke:#f38c5f;stroke-width:1.75;stroke-linecap:round;stroke-linejoin:round;stroke-miterlimit:10" /></g><g
         id="g293" /><g
         id="g297" /><g
         id="g301" /><g
         id="g305" /><g
         id="g309" /><g
         id="g313" /><g
         id="g317" /><g
         id="g321" /><g
         id="g325" /><g
         id="g329" /><g
         id="g333" /><g
         id="g337" /></g></g></svg>